<svg width="154" height="29" viewBox="0 0 154 29" fill="none" xmlns="http://www.w3.org/2000/svg">
<path d="M1.196 27.188C0.764 26.948 0.524 26.684 0.476 26.396C0.452 26.108 0.62 25.604 0.98 24.884C1.34 24.164 1.904 23.048 2.672 21.536C3.248 20.456 3.632 19.616 3.824 19.016C4.04 18.392 4.16 17.948 4.184 17.684C4.208 17.42 4.22 17.252 4.22 17.18C4.172 16.964 4.196 16.796 4.292 16.676C4.388 16.532 4.544 16.412 4.76 16.316C4.88 16.196 5.156 15.98 5.588 15.668C6.02 15.356 6.356 14.984 6.596 14.552C6.812 14.048 7.052 13.532 7.316 13.004C7.604 12.476 7.976 11.816 8.432 11.024C8.888 10.208 9.5 9.152 10.268 7.856C10.748 7.016 11.312 6.068 11.96 5.012C12.632 3.956 13.292 2.996 13.94 2.132C14.204 1.796 14.48 1.532 14.768 1.34C15.056 1.148 15.308 1.052 15.524 1.052C16.052 1.052 16.58 1.196 17.108 1.484C17.636 1.748 18.104 2.084 18.512 2.492C18.92 2.9 19.196 3.284 19.34 3.644C19.46 3.836 19.508 4.244 19.484 4.868C19.46 5.492 19.412 6.248 19.34 7.136C19.268 8.024 19.184 8.972 19.088 9.98C19.016 10.964 18.908 12.128 18.764 13.472C18.62 14.816 18.476 16.22 18.332 17.684C18.212 19.148 18.116 20.564 18.044 21.932C17.972 23.276 17.972 24.452 18.044 25.46C18.068 25.676 18.068 25.88 18.044 26.072C18.02 26.264 18.008 26.42 18.008 26.54C17.864 26.684 17.552 26.744 17.072 26.72C16.592 26.72 16.124 26.648 15.668 26.504C15.212 26.36 14.96 26.18 14.912 25.964C14.84 25.892 14.792 25.832 14.768 25.784C14.744 25.736 14.744 25.508 14.768 25.1C14.792 24.668 14.828 23.888 14.876 22.76L15.056 17.252L14.588 17.288C14.372 17.288 13.976 17.312 13.4 17.36C12.848 17.408 12.236 17.48 11.564 17.576C10.916 17.648 10.316 17.732 9.764 17.828C9.212 17.9 8.828 17.972 8.612 18.044C8.396 18.044 8.132 18.188 7.82 18.476C7.532 18.764 7.256 19.136 6.992 19.592C6.896 19.928 6.716 20.288 6.452 20.672C6.212 21.032 6.092 21.272 6.092 21.392C5.924 21.512 5.78 21.656 5.66 21.824C5.564 21.992 5.516 22.076 5.516 22.076C5.516 22.22 5.408 22.58 5.192 23.156C4.976 23.708 4.712 24.332 4.4 25.028C4.088 25.7 3.764 26.288 3.428 26.792L2.456 28.16L1.196 27.188ZM9.8 14.804C9.8 14.804 9.932 14.78 10.196 14.732C10.46 14.684 10.772 14.636 11.132 14.588C11.516 14.516 11.852 14.48 12.14 14.48C12.692 14.336 13.148 14.228 13.508 14.156C13.892 14.084 14.204 14.048 14.444 14.048C14.684 14.024 14.876 14.048 15.02 14.12C15.116 14.24 15.2 14.312 15.272 14.336C15.368 14.36 15.416 14.372 15.416 14.372C15.44 14.324 15.488 14.072 15.56 13.616C15.632 13.16 15.716 12.596 15.812 11.924C15.908 11.252 16.004 10.556 16.1 9.836C16.196 9.092 16.28 8.408 16.352 7.784C16.424 7.136 16.472 6.632 16.496 6.272C16.52 5.816 16.508 5.408 16.46 5.048C16.412 4.664 16.388 4.472 16.388 4.472C16.244 4.472 15.968 4.736 15.56 5.264C15.176 5.768 14.72 6.452 14.192 7.316C13.688 8.156 13.184 9.068 12.68 10.052C12.44 10.508 12.212 10.868 11.996 11.132C11.804 11.396 11.648 11.528 11.528 11.528C11.48 11.576 11.348 11.768 11.132 12.104C10.94 12.416 10.724 12.776 10.484 13.184C10.268 13.568 10.076 13.928 9.908 14.264C9.764 14.576 9.728 14.756 9.8 14.804ZM22.4987 26.396C22.0427 26.516 21.6347 26.384 21.2747 26C20.9147 25.64 20.6627 25.1 20.5187 24.38C20.3747 23.66 20.3987 22.856 20.5907 21.968C20.7107 21.68 20.8067 21.404 20.8787 21.14C20.9507 20.852 20.9867 20.624 20.9867 20.456C21.0347 20.216 21.1307 19.868 21.2747 19.412C21.4187 18.932 21.5747 18.44 21.7427 17.936C21.9107 17.432 22.0667 16.988 22.2107 16.604C22.3787 16.196 22.4867 15.944 22.5347 15.848C22.6307 15.848 22.7147 15.764 22.7867 15.596C22.8587 15.428 22.8947 15.26 22.8947 15.092C22.8947 14.9 22.9307 14.684 23.0027 14.444C23.0987 14.204 23.1947 14.036 23.2907 13.94C23.2907 13.82 23.3147 13.688 23.3627 13.544C23.4347 13.376 23.4707 13.244 23.4707 13.148C23.4707 13.052 23.4947 12.956 23.5427 12.86C23.6147 12.764 23.6507 12.668 23.6507 12.572C23.8187 12.26 24.0347 11.768 24.2987 11.096C24.5867 10.4 24.8867 9.632 25.1987 8.792C25.5347 7.952 25.8467 7.124 26.1347 6.308C26.4227 5.492 26.6507 4.808 26.8187 4.256C27.0107 3.68 27.1067 3.332 27.1067 3.212C27.1067 3.02 27.1787 2.84 27.3227 2.672C27.4667 2.504 27.6347 2.42 27.8267 2.42C27.8987 2.348 28.0667 2.3 28.3307 2.276C28.5947 2.228 28.7747 2.204 28.8707 2.204C28.8707 2.204 28.9187 2.252 29.0147 2.348C29.1107 2.444 29.2547 2.588 29.4467 2.78C29.6387 2.948 29.8187 3.14 29.9867 3.356C30.1787 3.572 30.2747 3.824 30.2747 4.112C30.2747 4.424 30.2267 4.724 30.1307 5.012C30.0587 5.3 29.9147 5.696 29.6987 6.2C29.4827 6.68 29.1467 7.4 28.6907 8.36C28.4987 8.84 28.2947 9.296 28.0787 9.728C27.8627 10.136 27.7547 10.388 27.7547 10.484C27.7547 10.58 27.7067 10.724 27.6107 10.916C27.5387 11.108 27.4547 11.348 27.3587 11.636C27.2627 11.828 27.1307 12.116 26.9627 12.5C26.7947 12.86 26.6147 13.256 26.4227 13.688C26.2547 14.096 26.1107 14.456 25.9907 14.768C25.8707 15.056 25.8107 15.224 25.8107 15.272C25.8107 15.368 25.7987 15.464 25.7747 15.56C25.7747 15.656 25.7267 15.752 25.6307 15.848C25.5347 15.848 25.4747 15.92 25.4507 16.064C25.4507 16.184 25.4507 16.244 25.4507 16.244C25.4507 16.484 25.2587 17.12 24.8747 18.152C24.4907 19.472 24.1307 20.684 23.7947 21.788C23.4827 22.892 23.3267 23.78 23.3267 24.452C23.3267 25.028 23.2307 25.472 23.0387 25.784C22.8707 26.096 22.6907 26.3 22.4987 26.396ZM34.3332 25.28C33.6132 25.688 32.8452 25.928 32.0292 26C31.2372 26.048 30.4932 25.94 29.7972 25.676C29.1012 25.388 28.5372 24.968 28.1052 24.416C27.8652 24.104 27.6372 23.612 27.4212 22.94C27.2052 22.244 27.1692 21.308 27.3132 20.132C27.4572 19.028 27.7932 17.912 28.3212 16.784C28.8732 15.656 29.5452 14.66 30.3372 13.796C31.1292 12.932 31.9932 12.344 32.9292 12.032C33.2652 11.912 33.6012 11.828 33.9372 11.78C34.2972 11.708 34.7652 11.696 35.3412 11.744C35.8932 11.816 36.3852 11.96 36.8172 12.176C37.2492 12.368 37.5612 12.584 37.7532 12.824C38.1372 13.208 38.3892 13.58 38.5092 13.94C38.6292 14.3 38.6772 14.648 38.6532 14.984C38.5332 15.752 38.1852 16.58 37.6092 17.468C37.0572 18.356 36.2772 19.016 35.2692 19.448C34.8612 19.616 34.3812 19.724 33.8292 19.772C33.2772 19.82 32.5212 19.748 31.5612 19.556C30.9852 19.436 30.6012 19.496 30.4092 19.736C30.2412 19.976 30.1692 20.444 30.1932 21.14C30.2412 21.572 30.3372 21.956 30.4812 22.292C30.6492 22.604 30.9492 22.82 31.3812 22.94C31.9332 23.036 32.3292 23.048 32.5692 22.976C32.8092 22.88 33.1092 22.748 33.4692 22.58C33.6612 22.46 33.8412 22.328 34.0092 22.184C34.2012 22.04 34.3812 21.896 34.5492 21.752C34.7412 21.608 34.8972 21.5 35.0172 21.428C35.1372 21.332 35.2572 21.272 35.3772 21.248C35.4972 21.224 35.6172 21.212 35.7372 21.212C36.0012 21.236 36.2532 21.38 36.4932 21.644C36.7332 21.908 36.8892 22.16 36.9612 22.4C36.9612 22.592 36.8412 22.868 36.6012 23.228C36.3612 23.564 36.0372 23.924 35.6292 24.308C35.2452 24.668 34.8132 24.992 34.3332 25.28ZM33.8652 17.252C34.0332 17.18 34.2732 17.012 34.5852 16.748C34.9212 16.484 35.2212 16.208 35.4852 15.92C35.7492 15.608 35.8812 15.368 35.8812 15.2C35.8812 14.936 35.7012 14.708 35.3412 14.516C35.0052 14.324 34.5612 14.288 34.0092 14.408C33.8172 14.456 33.5892 14.588 33.3252 14.804C33.0612 15.02 32.7972 15.272 32.5332 15.56C32.2692 15.824 32.0412 16.088 31.8492 16.352C31.6572 16.592 31.5252 16.784 31.4532 16.928C31.5492 17.048 31.7412 17.144 32.0292 17.216C32.3172 17.288 32.6292 17.324 32.9652 17.324C33.3252 17.324 33.6252 17.3 33.8652 17.252ZM42.5766 25.712C42.0486 25.712 41.6526 25.688 41.3886 25.64C41.1486 25.592 40.9686 25.52 40.8486 25.424C40.7286 25.328 40.5726 25.196 40.3806 25.028C40.2846 24.836 40.1166 24.596 39.8766 24.308C39.6366 23.996 39.4686 23.792 39.3726 23.696C39.2766 23.336 39.2406 22.844 39.2646 22.22C39.3126 21.596 39.4206 20.924 39.5886 20.204C39.7566 19.484 39.9606 18.836 40.2006 18.26C40.2966 18.068 40.3806 17.876 40.4526 17.684C40.5246 17.492 40.5606 17.396 40.5606 17.396C40.5606 17.276 40.7046 16.988 40.9926 16.532C41.3046 16.076 41.6406 15.596 42.0006 15.092C42.3846 14.588 42.6966 14.228 42.9366 14.012C43.1046 13.82 43.3566 13.616 43.6926 13.4C44.0526 13.184 44.3646 13.028 44.6286 12.932C44.8926 12.836 45.2526 12.716 45.7086 12.572C46.1646 12.404 46.5726 12.32 46.9326 12.32C47.2686 12.32 47.6286 12.392 48.0126 12.536C48.3966 12.68 48.7206 12.932 48.9846 13.292C49.4166 13.724 49.6926 14.24 49.8126 14.84C49.9326 15.44 49.9446 15.956 49.8486 16.388C49.7286 16.868 49.4886 17.264 49.1286 17.576C48.7686 17.864 48.3846 18.02 47.9766 18.044C47.5686 18.044 47.2086 17.876 46.8966 17.54C46.8006 17.348 46.7526 17.192 46.7526 17.072C46.7526 16.928 46.8006 16.724 46.8966 16.46C46.9926 16.124 47.0406 15.824 47.0406 15.56C47.0406 15.296 46.9326 15.164 46.7166 15.164C46.4046 15.164 46.1526 15.26 45.9606 15.452C45.7686 15.62 45.4806 15.908 45.0966 16.316C44.9286 16.508 44.7126 16.784 44.4486 17.144C44.1846 17.504 43.9206 17.9 43.6566 18.332C43.4166 18.74 43.2006 19.16 43.0086 19.592C42.7446 20.384 42.5766 20.9 42.5046 21.14C42.4566 21.356 42.4326 21.464 42.4326 21.464C42.4326 21.56 42.4206 21.656 42.3966 21.752C42.3726 21.824 42.3606 21.908 42.3606 22.004C42.3606 22.292 42.5286 22.52 42.8646 22.688C43.1286 22.856 43.3446 22.94 43.5126 22.94C43.7046 22.916 44.0646 22.784 44.5926 22.544C44.9766 22.352 45.3366 22.1 45.6726 21.788C46.0326 21.476 46.4046 21.2 46.7886 20.96C47.0526 20.792 47.2566 20.648 47.4006 20.528C47.5686 20.408 47.6526 20.396 47.6526 20.492C47.6526 20.588 47.6886 20.636 47.7606 20.636C47.8326 20.636 47.9166 20.588 48.0126 20.492C48.1566 20.3 48.3366 20.228 48.5526 20.276C48.7686 20.3 48.9606 20.36 49.1286 20.456C49.3206 20.552 49.4166 20.636 49.4166 20.708C49.3686 20.924 49.4166 21.104 49.5606 21.248C49.5606 21.344 49.5246 21.476 49.4526 21.644C49.4046 21.788 49.3326 21.908 49.2366 22.004C49.1166 22.172 48.9366 22.412 48.6966 22.724C48.4806 23.036 48.2766 23.312 48.0846 23.552C47.8926 23.792 47.7966 23.912 47.7966 23.912C47.7006 23.888 47.6046 23.912 47.5086 23.984C47.4366 24.056 47.3526 24.14 47.2566 24.236C47.0646 24.404 46.8846 24.536 46.7166 24.632C46.5486 24.704 46.4166 24.74 46.3206 24.74C46.1526 24.836 46.0206 24.896 45.9246 24.92C45.8526 24.944 45.8166 25.004 45.8166 25.1C45.5766 25.34 45.1446 25.508 44.5206 25.604C43.8966 25.676 43.2486 25.712 42.5766 25.712ZM67.076 28.34C66.644 28.22 66.296 28.112 66.032 28.016C65.768 27.944 65.636 27.908 65.636 27.908C65.684 27.788 65.66 27.68 65.564 27.584C65.492 27.488 65.324 27.428 65.06 27.404C64.7 27.164 64.328 26.828 63.944 26.396C63.56 25.964 63.224 25.52 62.936 25.064C62.648 24.608 62.456 24.272 62.36 24.056C62.192 23.696 62.204 23.48 62.396 23.408C62.588 23.312 62.816 23.204 63.08 23.084C63.344 22.892 63.62 22.748 63.908 22.652C64.22 22.556 64.472 22.712 64.664 23.12C64.976 23.672 65.456 24.14 66.104 24.524C66.776 24.908 67.532 25.136 68.372 25.208C69.236 25.28 70.1 25.136 70.964 24.776C71.54 24.512 71.852 24.152 71.9 23.696C71.948 23.216 71.768 22.664 71.36 22.04C71.288 21.848 71.18 21.692 71.036 21.572C70.916 21.452 70.724 21.296 70.46 21.104C70.22 20.912 69.872 20.6 69.416 20.168C69.056 20 68.72 19.844 68.408 19.7C68.12 19.556 67.808 19.4 67.472 19.232C67.088 19.04 66.656 18.776 66.176 18.44C65.696 18.08 65.252 17.696 64.844 17.288C64.436 16.856 64.124 16.448 63.908 16.064C63.524 15.704 63.284 15.212 63.188 14.588C63.092 13.94 63.104 13.256 63.224 12.536C63.368 11.816 63.596 11.168 63.908 10.592C64.052 10.256 64.316 9.824 64.7 9.296C65.084 8.744 65.516 8.18 65.996 7.604C66.476 7.028 66.932 6.512 67.364 6.056C67.82 5.576 68.18 5.252 68.444 5.084C68.636 4.892 68.84 4.7 69.056 4.508C69.272 4.292 69.38 4.184 69.38 4.184C69.404 4.064 69.44 4.004 69.488 4.004C69.56 4.004 69.596 4.004 69.596 4.004C69.716 3.932 69.98 3.812 70.388 3.644C70.796 3.476 71.24 3.164 71.72 2.708C73.328 1.94 74.696 1.424 75.824 1.16C76.952 0.871999 77.84 0.727999 78.488 0.727999C79.088 0.751999 79.676 0.919999 80.252 1.232C80.828 1.52 81.32 1.892 81.728 2.348C82.16 2.804 82.412 3.32 82.484 3.896C82.652 4.472 82.568 5.168 82.232 5.984C81.92 6.776 81.476 7.532 80.9 8.252C80.348 8.948 79.772 9.464 79.172 9.8C78.5 10.088 77.924 10.124 77.444 9.908C76.988 9.692 76.772 9.356 76.796 8.9C76.796 8.708 76.856 8.48 76.976 8.216C77.12 7.952 77.492 7.484 78.092 6.812C78.86 5.684 79.268 4.88 79.316 4.4C79.364 3.92 79.148 3.644 78.668 3.572C78.524 3.524 78.248 3.536 77.84 3.608C77.432 3.68 76.988 3.776 76.508 3.896C76.052 3.992 75.644 4.1 75.284 4.22C74.948 4.34 74.78 4.424 74.78 4.472C74.78 4.472 74.78 4.508 74.78 4.58C74.78 4.652 74.732 4.676 74.636 4.652C74.588 4.652 74.42 4.736 74.132 4.904C73.868 5.048 73.544 5.24 73.16 5.48C72.776 5.72 72.392 5.972 72.008 6.236C71.648 6.476 71.336 6.692 71.072 6.884C70.808 7.076 70.664 7.196 70.64 7.244C70.592 7.508 70.316 7.748 69.812 7.964C69.332 8.252 68.912 8.66 68.552 9.188C68.192 9.716 67.772 10.388 67.292 11.204C66.884 11.756 66.596 12.356 66.428 13.004C66.26 13.628 66.26 14.132 66.428 14.516C66.548 14.9 66.872 15.284 67.4 15.668C67.952 16.028 68.696 16.484 69.632 17.036C70.448 17.492 71.216 17.972 71.936 18.476C72.656 18.98 73.268 19.472 73.772 19.952C74.276 20.408 74.6 20.792 74.744 21.104C75.032 21.512 75.2 21.98 75.248 22.508C75.32 23.036 75.32 23.552 75.248 24.056C75.2 24.536 75.128 24.932 75.032 25.244C74.864 25.628 74.6 26.036 74.24 26.468C73.904 26.9 73.592 27.104 73.304 27.08C73.04 27.152 72.836 27.236 72.692 27.332C72.572 27.428 72.428 27.512 72.26 27.584C72.092 27.68 71.696 27.788 71.072 27.908C70.448 28.052 69.764 28.16 69.02 28.232C68.276 28.328 67.628 28.364 67.076 28.34ZM82.2722 28.16C81.0962 28.136 80.3402 27.8 80.0042 27.152C79.6922 26.528 79.6082 25.736 79.7522 24.776C79.8962 24.32 79.9802 23.912 80.0042 23.552C80.0522 23.168 80.1602 22.928 80.3282 22.832C80.3282 22.832 80.3402 22.796 80.3642 22.724C80.4122 22.652 80.4002 22.58 80.3282 22.508C80.3282 22.196 80.4362 21.764 80.6522 21.212C80.7002 21.068 80.7602 20.9 80.8322 20.708C80.9282 20.492 80.9762 20.384 80.9762 20.384C80.8562 20.192 80.8562 20.036 80.9762 19.916C81.0962 19.796 81.2162 19.688 81.3362 19.592C81.4802 19.472 81.4922 19.34 81.3722 19.196C81.3242 19.1 81.3842 18.884 81.5522 18.548C81.7202 18.188 81.9122 17.816 82.1282 17.432C82.3442 17.048 82.4882 16.748 82.5602 16.532C82.5602 16.484 82.6202 16.316 82.7402 16.028C82.8602 15.74 83.0042 15.404 83.1722 15.02C83.3402 14.636 83.4962 14.288 83.6402 13.976C83.8082 13.664 83.9162 13.46 83.9642 13.364C84.2042 13.244 84.1082 13.16 83.6762 13.112C83.2442 13.064 82.7882 13.052 82.3082 13.076C81.5642 13.052 80.9642 13.016 80.5082 12.968C80.0762 12.92 79.7162 12.812 79.4282 12.644C79.1402 12.308 79.1042 11.912 79.3202 11.456C79.5362 10.976 79.8842 10.724 80.3642 10.7C80.6762 10.676 80.9162 10.664 81.0842 10.664C81.2762 10.664 81.5162 10.652 81.8042 10.628C82.1162 10.58 82.5962 10.52 83.2442 10.448L85.0802 10.304L85.1882 9.692C85.3802 9.38 85.5122 9.176 85.5842 9.08C85.6562 8.984 85.7042 8.888 85.7282 8.792C85.7522 8.672 85.7882 8.468 85.8362 8.18C85.8362 8.18 85.9442 7.988 86.1602 7.604C86.3762 7.196 86.5082 6.776 86.5562 6.344C86.8442 5.864 87.0962 5.432 87.3122 5.048C87.5282 4.64 87.6602 4.388 87.7082 4.292C88.1162 3.692 88.5122 3.368 88.8962 3.32C89.3042 3.272 89.6882 3.368 90.0482 3.608C90.2642 3.728 90.4682 3.884 90.6602 4.076C90.8522 4.244 90.9722 4.472 91.0202 4.76C91.0682 5.024 90.9602 5.372 90.6962 5.804C90.6482 5.9 90.5762 6.08 90.4802 6.344C90.3842 6.584 90.3122 6.788 90.2642 6.956C90.1202 7.124 89.9402 7.4 89.7242 7.784C89.5322 8.144 89.4002 8.516 89.3282 8.9C89.1362 9.308 89.0162 9.56 88.9682 9.656C88.9202 9.752 88.8482 9.8 88.7522 9.8C88.8002 10.04 88.9442 10.16 89.1842 10.16C89.4242 10.136 89.8202 10.112 90.3722 10.088C90.8282 10.04 91.1402 9.992 91.3082 9.944C91.5002 9.872 91.7162 9.896 91.9562 10.016C92.0762 10.184 92.1362 10.436 92.1362 10.772C92.1602 11.084 92.1242 11.396 92.0282 11.708C91.9322 11.996 91.8002 12.176 91.6322 12.248C91.5122 12.248 91.2602 12.32 90.8762 12.464C90.5162 12.584 90.0602 12.656 89.5082 12.68L87.6002 12.86L86.9882 14.084C86.8202 14.396 86.6762 14.684 86.5562 14.948C86.4362 15.188 86.3522 15.332 86.3042 15.38C86.3042 15.524 86.2202 15.74 86.0522 16.028C85.9082 16.316 85.7522 16.628 85.5842 16.964C85.4402 17.372 85.2722 17.744 85.0802 18.08C84.9122 18.416 84.8282 18.584 84.8282 18.584C84.7322 18.584 84.6842 18.656 84.6842 18.8C84.8042 19.088 84.7682 19.304 84.5762 19.448C84.4562 19.52 84.3482 19.628 84.2522 19.772C84.1802 19.892 84.1442 19.952 84.1442 19.952C84.2402 20.048 84.2522 20.168 84.1802 20.312C84.1322 20.456 84.0602 20.612 83.9642 20.78C83.9642 20.972 83.9042 21.248 83.7842 21.608C83.6882 21.968 83.5802 22.304 83.4602 22.616C83.4842 23.048 83.5082 23.324 83.5322 23.444C83.5562 23.564 83.6162 23.612 83.7122 23.588C83.8322 23.612 84.0002 23.612 84.2162 23.588C84.4322 23.564 84.5882 23.552 84.6842 23.552C85.0442 23.384 84.8762 24.224 84.1802 26.072C83.7962 26.672 83.4122 27.164 83.0282 27.548C82.6442 27.956 82.3922 28.16 82.2722 28.16ZM91.5262 25.028C91.3102 24.86 91.0702 24.644 90.8062 24.38C90.5662 24.116 90.4822 23.744 90.5542 23.264C90.6262 22.592 90.7222 22.004 90.8422 21.5C90.9622 20.972 91.1062 20.372 91.2742 19.7C91.3222 19.412 91.4422 18.92 91.6342 18.224C91.8502 17.528 92.1022 16.772 92.3902 15.956C92.6782 15.14 92.9782 14.372 93.2902 13.652C93.6022 12.908 93.8782 12.356 94.1182 11.996C94.3822 11.756 94.7662 11.636 95.2702 11.636C95.7982 11.636 96.1582 11.732 96.3502 11.924C96.6142 12.14 96.6982 12.524 96.6022 13.076C96.5062 13.604 96.1702 14.432 95.5942 15.56C95.4742 15.848 95.3182 16.16 95.1262 16.496C94.9582 16.808 94.8382 17.072 94.7662 17.288C94.6942 17.48 94.7182 17.564 94.8382 17.54C94.9822 17.276 95.2462 16.976 95.6302 16.64C96.0142 16.28 96.4222 15.932 96.8542 15.596C97.2862 15.26 97.6942 14.96 98.0782 14.696C98.4622 14.432 98.7262 14.264 98.8702 14.192C99.0622 14.072 99.2782 13.976 99.5182 13.904C99.7822 13.808 99.9622 13.736 100.058 13.688C100.61 13.424 101.21 13.328 101.858 13.4C102.53 13.448 102.938 13.652 103.082 14.012C103.106 14.204 103.178 14.348 103.298 14.444C103.442 14.54 103.514 14.588 103.514 14.588C103.61 14.588 103.658 14.624 103.658 14.696C103.682 14.768 103.694 14.804 103.694 14.804C103.694 14.972 103.526 15.212 103.19 15.524C102.878 15.836 102.53 16.004 102.146 16.028C101.834 16.052 101.558 16.112 101.318 16.208C101.078 16.304 100.79 16.424 100.454 16.568C99.5422 17.096 98.7142 17.564 97.9702 17.972C97.2502 18.38 96.5062 19.004 95.7382 19.844C95.5702 20.036 95.3902 20.216 95.1982 20.384C95.0062 20.552 94.8142 20.792 94.6222 21.104C94.5022 21.224 94.3822 21.488 94.2622 21.896C94.1422 22.304 94.0342 22.7 93.9382 23.084C93.8662 23.444 93.8302 23.66 93.8302 23.732C93.8302 23.732 93.7942 23.852 93.7222 24.092C93.6502 24.308 93.5302 24.524 93.3622 24.74C93.0742 25.124 92.7862 25.364 92.4982 25.46C92.2342 25.556 91.9102 25.412 91.5262 25.028ZM107.235 25.712C106.731 25.808 106.347 25.784 106.083 25.64C105.843 25.472 105.591 25.268 105.327 25.028C104.943 24.836 104.595 24.572 104.283 24.236C103.971 23.876 103.731 23.504 103.563 23.12C103.395 22.736 103.323 22.436 103.347 22.22C103.419 21.38 103.611 20.468 103.923 19.484C104.259 18.5 104.679 17.54 105.183 16.604C105.711 15.668 106.299 14.84 106.947 14.12C107.619 13.376 108.339 12.836 109.107 12.5C109.587 12.308 110.103 12.236 110.655 12.284C111.207 12.332 111.579 12.56 111.771 12.968C112.131 13.664 112.047 14.108 111.519 14.3C111.447 14.3 111.363 14.336 111.267 14.408C111.171 14.456 111.123 14.528 111.123 14.624C111.219 14.672 111.483 14.684 111.915 14.66C112.347 14.612 112.779 14.54 113.211 14.444C113.667 14.324 113.967 14.204 114.111 14.084C114.255 14.012 114.363 13.976 114.435 13.976C114.507 13.976 114.687 14 114.975 14.048C115.383 14.168 115.587 14.312 115.587 14.48C115.587 14.576 115.623 14.732 115.695 14.948C115.767 15.14 115.851 15.236 115.947 15.236C116.115 15.26 116.151 15.428 116.055 15.74C115.983 16.052 115.707 16.376 115.227 16.712C114.771 17 114.483 17.192 114.363 17.288C114.267 17.36 114.255 17.528 114.327 17.792C114.519 18.248 114.507 18.8 114.291 19.448C114.075 20.096 113.715 20.768 113.211 21.464C112.707 22.16 112.107 22.82 111.411 23.444C110.739 24.044 110.031 24.56 109.287 24.992C108.567 25.4 107.883 25.64 107.235 25.712ZM107.343 22.688C107.439 22.688 107.607 22.64 107.847 22.544C108.087 22.424 108.279 22.328 108.423 22.256C108.519 22.16 108.639 22.052 108.783 21.932C108.951 21.788 109.083 21.704 109.179 21.68C109.275 21.68 109.335 21.644 109.359 21.572C109.383 21.476 109.467 21.296 109.611 21.032C109.755 20.744 110.043 20.324 110.475 19.772C110.955 19.244 111.267 18.824 111.411 18.512C111.555 18.176 111.567 17.816 111.447 17.432C111.423 17.336 111.351 17.276 111.231 17.252C111.135 17.228 111.003 17.168 110.835 17.072C110.595 17.072 110.427 17.132 110.331 17.252C110.259 17.348 110.091 17.288 109.827 17.072L109.251 16.352L108.639 16.964C108.255 17.348 107.907 17.828 107.595 18.404C107.307 18.98 107.079 19.568 106.911 20.168C106.743 20.768 106.635 21.296 106.587 21.752C106.563 22.112 106.623 22.352 106.767 22.472C106.911 22.592 107.103 22.664 107.343 22.688ZM120.278 25.496C119.966 25.568 119.558 25.52 119.054 25.352C118.55 25.16 118.058 24.932 117.578 24.668C117.122 24.38 116.81 24.152 116.642 23.984C116.474 23.792 116.426 23.624 116.498 23.48C116.57 23.312 116.69 23.228 116.858 23.228C116.954 23.228 117.11 23.132 117.326 22.94C117.542 22.724 117.674 22.34 117.722 21.788C117.77 21.452 117.83 21.164 117.902 20.924C117.998 20.66 118.046 20.48 118.046 20.384C118.07 20.312 118.094 20.12 118.118 19.808C118.166 19.472 118.238 19.184 118.334 18.944C118.43 18.512 118.574 17.96 118.766 17.288C118.958 16.592 119.15 15.92 119.342 15.272C119.558 14.6 119.726 14.084 119.846 13.724C119.894 13.46 120.002 13.124 120.17 12.716C120.338 12.308 120.482 11.984 120.602 11.744C120.842 11.072 121.166 10.256 121.574 9.296C122.006 8.336 122.45 7.376 122.906 6.416C123.362 5.432 123.758 4.604 124.094 3.932C124.454 3.236 124.682 2.816 124.778 2.672C124.97 2.48 125.282 2.408 125.714 2.456C126.146 2.504 126.494 2.66 126.758 2.924C126.974 3.188 127.178 3.464 127.37 3.752C127.562 4.04 127.514 4.352 127.226 4.688C127.13 4.856 126.974 5.12 126.758 5.48C126.542 5.816 126.374 6.068 126.254 6.236C126.062 6.812 125.822 7.376 125.534 7.928C125.27 8.48 124.982 9.104 124.67 9.8C124.358 10.472 124.022 11.312 123.662 12.32C123.446 12.776 123.266 13.232 123.122 13.688C122.978 14.12 122.858 14.396 122.762 14.516C122.618 15.044 122.462 15.44 122.294 15.704C122.15 15.968 122.03 16.388 121.934 16.964C121.934 16.964 122.054 16.844 122.294 16.604C122.558 16.364 122.87 16.064 123.23 15.704C124.166 14.696 125.006 13.928 125.75 13.4C126.494 12.872 127.178 12.596 127.802 12.572C128.138 12.548 128.498 12.632 128.882 12.824C129.29 13.016 129.662 13.256 129.998 13.544C130.334 13.808 130.562 14.096 130.682 14.408C130.874 14.84 130.97 15.404 130.97 16.1C130.97 16.772 130.862 17.468 130.646 18.188C130.454 18.908 130.142 19.544 129.71 20.096C129.446 20.552 129.122 20.996 128.738 21.428C128.378 21.836 128.066 22.136 127.802 22.328C127.562 22.544 127.322 22.76 127.082 22.976C126.866 23.168 126.686 23.324 126.542 23.444C126.23 23.66 125.978 23.828 125.786 23.948C125.594 24.044 125.33 24.152 124.994 24.272C124.49 24.632 123.794 24.896 122.906 25.064C122.018 25.232 121.142 25.376 120.278 25.496ZM121.178 22.76C121.346 22.76 121.646 22.724 122.078 22.652C122.534 22.58 122.954 22.4 123.338 22.112C124.466 21.536 125.366 20.9 126.038 20.204C126.734 19.508 127.226 18.812 127.514 18.116C127.802 17.42 127.922 16.796 127.874 16.244C127.826 15.692 127.526 15.524 126.974 15.74C126.446 15.932 125.618 16.592 124.49 17.72C123.962 18.2 123.506 18.656 123.122 19.088C122.738 19.52 122.342 19.976 121.934 20.456C121.766 20.72 121.598 20.936 121.43 21.104C121.286 21.248 121.202 21.416 121.178 21.608C121.01 22.376 121.01 22.76 121.178 22.76ZM135.266 25.676C134.33 25.292 133.682 24.668 133.322 23.804C132.962 22.94 132.866 21.788 133.034 20.348C133.082 19.604 133.058 19.112 132.962 18.872C132.866 18.608 132.686 18.356 132.422 18.116C132.35 18.02 132.182 17.864 131.918 17.648C131.654 17.408 131.534 17.228 131.558 17.108C131.534 16.94 131.57 16.736 131.666 16.496C131.762 16.232 131.846 16.088 131.918 16.064C132.086 15.992 132.254 15.908 132.422 15.812C132.614 15.716 132.758 15.692 132.854 15.74C132.95 15.74 133.094 15.8 133.286 15.92C133.502 16.04 133.61 16.148 133.61 16.244C133.706 16.412 133.85 16.34 134.042 16.028C134.258 15.716 134.486 15.32 134.726 14.84C134.966 14.456 135.266 14.096 135.626 13.76C135.986 13.424 136.346 13.124 136.706 12.86C137.09 12.572 137.414 12.356 137.678 12.212C137.798 12.164 138.026 12.092 138.362 11.996C138.722 11.9 139.094 11.828 139.478 11.78C139.862 11.708 140.15 11.684 140.342 11.708C140.774 11.732 141.23 11.912 141.71 12.248C142.19 12.584 142.562 12.896 142.826 13.184C143.138 13.4 143.342 13.736 143.438 14.192C143.558 14.624 143.606 15.08 143.582 15.56C143.558 16.04 143.462 16.448 143.294 16.784C143.222 17.024 142.97 17.36 142.538 17.792C142.106 18.224 141.626 18.644 141.098 19.052C140.594 19.436 140.162 19.7 139.802 19.844C139.49 19.916 139.118 19.976 138.686 20.024C138.254 20.048 137.846 20.048 137.462 20.024C137.102 19.976 136.85 19.916 136.706 19.844C136.538 19.748 136.394 19.784 136.274 19.952C136.178 20.096 136.094 20.504 136.022 21.176C135.998 21.44 135.998 21.668 136.022 21.86C136.07 22.052 136.118 22.196 136.166 22.292C136.334 22.58 136.502 22.796 136.67 22.94C136.838 23.06 137.15 23.096 137.606 23.048C138.062 23 138.518 22.724 138.974 22.22C139.454 21.692 139.886 21.272 140.27 20.96C140.366 20.792 140.57 20.684 140.882 20.636C141.218 20.564 141.614 20.588 142.07 20.708C142.334 20.876 142.454 21.14 142.43 21.5C142.43 21.86 142.238 22.388 141.854 23.084C141.782 23.252 141.578 23.504 141.242 23.84C140.93 24.152 140.582 24.476 140.198 24.812C139.838 25.124 139.538 25.352 139.298 25.496C138.578 25.88 137.87 26.06 137.174 26.036C136.478 26.012 135.842 25.892 135.266 25.676ZM137.93 17.576C138.29 17.48 138.59 17.384 138.83 17.288C139.094 17.192 139.346 17.036 139.586 16.82C139.826 16.604 140.102 16.28 140.414 15.848C140.51 15.584 140.558 15.356 140.558 15.164C140.582 14.972 140.57 14.852 140.522 14.804C140.33 14.612 140.114 14.552 139.874 14.624C139.658 14.672 139.418 14.792 139.154 14.984C138.986 15.056 138.746 15.212 138.434 15.452C138.146 15.668 137.858 15.92 137.57 16.208C137.306 16.472 137.09 16.724 136.922 16.964C136.778 17.18 136.754 17.312 136.85 17.36C136.802 17.456 136.934 17.516 137.246 17.54C137.582 17.564 137.81 17.576 137.93 17.576ZM145.129 27.08C144.817 26.96 144.565 26.768 144.373 26.504C144.181 26.264 144.073 25.904 144.049 25.424C144.025 25.112 144.037 24.656 144.085 24.056C144.133 23.432 144.217 22.808 144.337 22.184C144.337 22.136 144.337 22.088 144.337 22.04C144.361 21.968 144.373 21.92 144.373 21.896C144.397 21.8 144.421 21.656 144.445 21.464C144.469 21.248 144.493 21.08 144.517 20.96C144.565 20.816 144.589 20.804 144.589 20.924L144.805 19.952C144.901 19.52 145.009 19.076 145.129 18.62C145.249 18.164 145.357 17.768 145.453 17.432C145.573 17.072 145.645 16.868 145.669 16.82C145.669 16.82 145.705 16.688 145.777 16.424C145.873 16.136 145.969 15.848 146.065 15.56C146.449 14.36 146.809 13.364 147.145 12.572C147.505 11.78 147.817 11.204 148.081 10.844C148.105 10.772 148.141 10.688 148.189 10.592C148.237 10.472 148.273 10.376 148.297 10.304C148.297 10.04 148.309 9.848 148.333 9.728C148.381 9.608 148.441 9.5 148.513 9.404C148.561 9.308 148.633 9.188 148.729 9.044C148.825 8.876 148.933 8.672 149.053 8.432L149.197 8.036C149.341 7.724 149.521 7.364 149.737 6.956C149.953 6.524 150.109 6.2 150.205 5.984C150.277 5.768 150.421 5.516 150.637 5.228C150.853 4.916 151.093 4.712 151.357 4.616L151.321 4.58C151.441 4.364 151.669 4.196 152.005 4.076C152.341 3.932 152.617 3.86 152.833 3.86C153.169 3.86 153.421 3.956 153.589 4.148C153.781 4.34 153.877 4.604 153.877 4.94C153.877 5.3 153.865 5.564 153.841 5.732C153.841 5.876 153.757 6.044 153.589 6.236H153.625C153.673 6.188 153.661 6.26 153.589 6.452C153.517 6.644 153.457 6.776 153.409 6.848C153.361 6.968 153.301 7.1 153.229 7.244C153.181 7.388 153.121 7.496 153.049 7.568C152.977 7.664 152.785 8 152.473 8.576C152.161 9.128 151.813 9.788 151.429 10.556C151.045 11.3 150.673 12.032 150.313 12.752C149.977 13.448 149.737 13.988 149.593 14.372L149.413 14.912C149.389 15.008 149.377 15.08 149.377 15.128C149.305 15.296 149.233 15.464 149.161 15.632C149.089 15.8 149.017 15.944 148.945 16.064L148.369 18.296L148.225 19.052L147.901 19.88L147.685 20.564C147.637 20.708 147.601 20.864 147.577 21.032C147.553 21.2 147.505 21.32 147.433 21.392C147.433 21.416 147.421 21.452 147.397 21.5C147.397 21.524 147.397 21.548 147.397 21.572C147.301 21.956 147.133 22.496 146.893 23.192C146.677 23.888 146.545 24.656 146.497 25.496C146.497 25.52 146.485 25.544 146.461 25.568C146.461 25.592 146.461 25.616 146.461 25.64C146.389 26.144 146.233 26.528 145.993 26.792C145.777 27.08 145.489 27.176 145.129 27.08Z" fill="black"/>
</svg>
